<svg width="70" height="70" viewBox="0 0 70 70" fill="none" xmlns="http://www.w3.org/2000/svg">
<path d="M15.75 68.25C13.8942 68.2478 12.1149 67.5096 10.8027 66.1974C9.49037 64.8851 8.75217 63.1059 8.75 61.25V8.75C8.75217 6.89415 9.49037 5.11493 10.8027 3.80265C12.1149 2.49037 13.8942 1.75217 15.75 1.75H41.2891L61.25 21.7246V61.25C61.2478 63.1059 60.5096 64.8851 59.1973 66.1974C57.8851 67.5096 56.1058 68.2478 54.25 68.25H15.75Z" fill="white"/>
<path d="M56.2584 19.75H57.4634L56.6124 18.8969L44.104 6.35705L43.25 5.5009V6.71016L43.25 14L43.25 14.0005C43.2516 15.5249 43.8578 16.9864 44.9357 18.0643C46.0136 19.1422 47.4751 19.7484 48.9995 19.75H49H56.2584ZM60 61.2505V61.25V22.75V22.25H59.5H49C46.812 22.25 44.7135 21.3808 43.1664 19.8336C41.6192 18.2865 40.75 16.188 40.75 14V3.5V3H40.25L15.75 3L15.7495 3C14.2251 3.00159 12.7636 3.60784 11.6857 4.68574C10.6078 5.76363 10.0016 7.22511 10 8.74948V8.75L10 61.25L10 61.2505C10.0016 62.7749 10.6078 64.2364 11.6857 65.3143C12.7636 66.3922 14.2251 66.9984 15.7495 67H15.75H54.25H54.2505C55.7749 66.9984 57.2364 66.3922 58.3143 65.3143C59.3922 64.2364 59.9984 62.7749 60 61.2505ZM15.75 0.5H41.8119L62.5 21.207V61.25C62.5 63.438 61.6308 65.5365 60.0836 67.0836C58.5365 68.6308 56.438 69.5 54.25 69.5H15.75C13.562 69.5 11.4635 68.6308 9.91637 67.0836C8.36919 65.5365 7.5 63.438 7.5 61.25V8.75C7.5 6.56196 8.36919 4.46354 9.91637 2.91637C11.4635 1.36919 13.562 0.5 15.75 0.5Z" fill="#535D73" stroke="white"/>
<path d="M18.1709 49.1973C17.8486 49.1973 17.6875 49.0361 17.6875 48.7139V47.7686C17.6875 47.5394 17.7734 47.2923 17.9453 47.0273L23.8428 37.918C24.0075 37.6602 24.208 37.5312 24.4443 37.5312H25.4219C25.7513 37.5312 25.916 37.6924 25.916 38.0146V47.4355H27.7529C28.0752 47.4355 28.2363 47.5967 28.2363 47.9189V48.7139C28.2363 49.0361 28.0788 49.1973 27.7637 49.1973H25.916V52.5166C25.916 52.8389 25.7549 53 25.4326 53H24.5088C24.1865 53 24.0254 52.8389 24.0254 52.5166V49.1973H18.1709ZM19.6104 47.4355H24.0254V41.2588C24.0254 41.0439 24.0326 40.8291 24.0469 40.6143H24.0254L19.6104 47.4355ZM29.9229 45.3623C29.9229 42.8558 30.2666 40.9043 30.9541 39.5078C31.6416 38.1042 32.9521 37.4023 34.8857 37.4023C36.8193 37.4023 38.1299 38.1042 38.8174 39.5078C39.5049 40.9043 39.8486 42.8558 39.8486 45.3623C39.8486 47.8688 39.5049 49.8239 38.8174 51.2275C38.1299 52.624 36.8193 53.3223 34.8857 53.3223C32.9521 53.3223 31.6416 52.624 30.9541 51.2275C30.2666 49.8239 29.9229 47.8688 29.9229 45.3623ZM31.9209 45.3623C31.9209 47.3675 32.0928 48.9395 32.4365 50.0781C32.7803 51.2096 33.5967 51.7754 34.8857 51.7754C36.1748 51.7754 36.9912 51.2096 37.335 50.0781C37.6787 48.9395 37.8506 47.3675 37.8506 45.3623C37.8506 43.3571 37.6787 41.7887 37.335 40.6572C36.9912 39.5186 36.1748 38.9492 34.8857 38.9492C33.5967 38.9492 32.7803 39.5186 32.4365 40.6572C32.0928 41.7887 31.9209 43.3571 31.9209 45.3623ZM42.0186 49.1973C41.6963 49.1973 41.5352 49.0361 41.5352 48.7139V47.7686C41.5352 47.5394 41.6211 47.2923 41.793 47.0273L47.6904 37.918C47.8551 37.6602 48.0557 37.5312 48.292 37.5312H49.2695C49.599 37.5312 49.7637 37.6924 49.7637 38.0146V47.4355H51.6006C51.9229 47.4355 52.084 47.5967 52.084 47.9189V48.7139C52.084 49.0361 51.9264 49.1973 51.6113 49.1973H49.7637V52.5166C49.7637 52.8389 49.6025 53 49.2803 53H48.3564C48.0342 53 47.873 52.8389 47.873 52.5166V49.1973H42.0186ZM43.458 47.4355H47.873V41.2588C47.873 41.0439 47.8802 40.8291 47.8945 40.6143H47.873L43.458 47.4355Z" fill="#55C7C7"/>
</svg>
