<svg width="70" height="70" viewBox="0 0 70 70" fill="none" xmlns="http://www.w3.org/2000/svg">
<path d="M15.75 68.25C13.8942 68.2478 12.1149 67.5096 10.8027 66.1974C9.49037 64.8851 8.75217 63.1059 8.75 61.25V8.75C8.75217 6.89415 9.49037 5.11493 10.8027 3.80265C12.1149 2.49037 13.8942 1.75217 15.75 1.75H41.2891L61.25 21.7246V61.25C61.2478 63.1059 60.5096 64.8851 59.1973 66.1974C57.8851 67.5096 56.1058 68.2478 54.25 68.25H15.75Z" fill="#D9E4E8"/>
<g opacity="0.14">
<path d="M59.5 17.5L47.4031 5.40173C45.3946 5.77454 43.5799 6.83834 42.2734 8.40875C40.967 9.97915 40.2511 11.9572 40.25 14V17.5C40.25 19.8206 41.1719 22.0462 42.8128 23.6872C44.4538 25.3281 46.6794 26.25 49 26.25H59.5V17.5Z" fill="#17292D"/>
</g>
<path d="M49 21C47.1441 20.9978 45.3649 20.2596 44.0527 18.9473C42.7404 17.635 42.0022 15.8558 42 14V2.47729L60.4762 21H49Z" fill="#79D3D3"/>
<path d="M56.2584 19.75H57.4634L56.6124 18.8969L44.104 6.35705L43.25 5.5009V6.71016L43.25 14L43.25 14.0005C43.2516 15.5249 43.8578 16.9864 44.9357 18.0643C46.0136 19.1422 47.4751 19.7484 48.9995 19.75H49H56.2584ZM60 61.2505V61.25V22.75V22.25H59.5H49C46.812 22.25 44.7135 21.3808 43.1664 19.8336C41.6192 18.2865 40.75 16.188 40.75 14V3.5V3H40.25L15.75 3L15.7495 3C14.2251 3.00159 12.7636 3.60784 11.6857 4.68574C10.6078 5.76363 10.0016 7.22511 10 8.74948V8.75L10 61.25L10 61.2505C10.0016 62.7749 10.6078 64.2364 11.6857 65.3143C12.7636 66.3922 14.2251 66.9984 15.7495 67H15.75H54.25H54.2505C55.7749 66.9984 57.2364 66.3922 58.3143 65.3143C59.3922 64.2364 59.9984 62.7749 60 61.2505ZM15.75 0.5H41.8119L62.5 21.207V61.25C62.5 63.438 61.6308 65.5365 60.0836 67.0836C58.5365 68.6308 56.438 69.5 54.25 69.5H15.75C13.562 69.5 11.4635 68.6308 9.91637 67.0836C8.36919 65.5365 7.5 63.438 7.5 61.25V8.75C7.5 6.56196 8.36919 4.46354 9.91637 2.91637C11.4635 1.36919 13.562 0.5 15.75 0.5Z" fill="#141F38" stroke="white"/>
<path d="M22.9965 45.4809V45.7937L23.2778 45.9305L27.4798 47.9741C27.48 47.9742 27.4802 47.9743 27.4804 47.9744C27.8391 48.1496 27.9169 48.2263 27.9552 48.292C28.002 48.3724 28.0441 48.5327 28.0441 49.0287V50.5887C28.0441 50.7477 28.0339 50.8605 28.0193 50.9374C27.971 50.9211 27.9055 50.894 27.82 50.8503L20.2504 46.7564C19.9654 46.5861 19.8677 46.5035 19.82 46.4363C19.7896 46.3935 19.75 46.3165 19.75 46.0564V44.9217C19.75 44.6635 19.7895 44.576 19.8251 44.5241C19.8742 44.4526 19.9741 44.3641 20.2504 44.1985L27.8187 40.1203C27.9051 40.0767 27.9713 40.0496 28.0203 40.0333C28.0342 40.1099 28.0435 40.2217 28.0428 40.3788V40.3812V41.7977C28.0428 42.2893 27.997 42.456 27.9487 42.5392C27.9081 42.6093 27.8308 42.6836 27.4984 42.8546L23.2769 44.9182L22.9965 45.0553V45.3674V45.4809ZM27.9924 51.0314C27.9924 51.0314 27.9926 51.0311 27.993 51.0304L27.9924 51.0314ZM27.9938 39.9377C27.9938 39.9377 27.994 39.9381 27.9944 39.9389L27.9938 39.9377Z" fill="#141F38" stroke="#D9E4E8"/>
<path d="M36.8258 37.6967L36.8287 37.6888L36.8314 37.6808C36.9204 37.4167 36.9935 37.3481 37.0328 37.3219C37.0802 37.2903 37.1839 37.25 37.4773 37.25H39.3053C39.3483 37.25 39.3853 37.2514 39.4169 37.2537C39.4088 37.2804 39.3985 37.3106 39.3856 37.3448L39.3854 37.3455L33.3998 53.3019L33.3968 53.3098L33.3942 53.3178C33.3049 53.5826 33.2319 53.6516 33.1925 53.6779C33.1454 53.7095 33.042 53.75 32.7482 53.75H30.9203C30.8797 53.75 30.8447 53.7488 30.8147 53.7467C30.8223 53.7169 30.8323 53.6827 30.8451 53.6438L36.8258 37.6967Z" fill="#141F38" stroke="#D9E4E8"/>
<path d="M46.9967 45.4507V45.1379L46.7154 45.0011L42.5134 42.9575C42.5132 42.9574 42.5131 42.9574 42.513 42.9573C42.1516 42.7808 42.0648 42.7024 42.0212 42.6308C41.9727 42.5514 41.9258 42.392 41.9258 41.9029V40.3593C41.9258 40.1953 41.9404 40.0838 41.9585 40.0129C42.0044 40.0289 42.0696 40.0579 42.1563 40.1087L42.1635 40.1129L42.1709 40.1169L49.7452 44.2133C50.0154 44.3753 50.12 44.47 50.1711 44.5443C50.2091 44.5996 50.2459 44.6843 50.2459 44.9134V46.0482C50.2459 46.2788 50.2091 46.3729 50.1671 46.436C50.1153 46.514 50.01 46.613 49.7457 46.7713L42.1716 50.8525L42.1697 50.8536C42.0752 50.905 42.0058 50.9326 41.9585 50.9465C41.9407 50.8792 41.9258 50.771 41.9258 50.6091V49.1339C41.9258 48.6778 41.9753 48.5059 42.03 48.4138C42.08 48.3296 42.1747 48.2421 42.495 48.0769L46.7163 46.0134L46.9967 45.8763V45.5642V45.4507ZM41.9837 39.9426C41.9837 39.9426 41.9835 39.9429 41.9831 39.9435L41.9837 39.9426ZM41.9814 51.0089C41.9814 51.0089 41.9812 51.0086 41.9807 51.0079L41.9814 51.0089Z" fill="#141F38" stroke="#D9E4E8"/>
</svg>
