<svg width="15" height="15" viewBox="0 0 15 15" fill="none" xmlns="http://www.w3.org/2000/svg" style="">
<g opacity="0.6">
<path fill-rule="evenodd" clip-rule="evenodd" d="M2 2.5C2 2.22386 2.22386 2 2.5 2H9.5C9.77614 2 10 2.22386 10 2.5V9.5C10 9.77614 9.77614 10 9.5 10H2.5C2.22386 10 2 9.77614 2 9.5V2.5ZM3 3V9H9V3H3ZM11 5.5C11 5.22386 11.2239 5 11.5 5H12.5C12.7761 5 13 5.22386 13 5.5V12.5C13 12.7761 12.7761 13 12.5 13H5.5C5.22386 13 5 12.7761 5 12.5V11.5C5 11.2239 5.22386 11 5.5 11C5.77614 11 6 11.2239 6 11.5V12H12V6H11.5C11.2239 6 11 5.77614 11 5.5Z" fill="currentColor">
</path>
</g>
</svg>